<?xml version="1.0" encoding="utf-8"?>
<!-- Generator: Adobe Illustrator 15.0.0, SVG Export Plug-In . SVG Version: 6.00 Build 0)  -->
<!DOCTYPE svg PUBLIC "-//W3C//DTD SVG 1.1//EN" "http://www.w3.org/Graphics/SVG/1.1/DTD/svg11.dtd">
<svg version="1.1" id="Ebene_1" xmlns="http://www.w3.org/2000/svg" xmlns:xlink="http://www.w3.org/1999/xlink" x="0px" y="0px"
	 width="68px" height="88px" viewBox="0 0 68 88" enable-background="new 0 0 68 88" xml:space="preserve">
<g>
	<path fill="#1D1D1B" d="M64.998,43.801c-0.199-1.2-1.5-1.801-4-2.102c-1.299-0.1-2.199,0-2.799,0.201h-0.301l-1.9,1.1
		c-1.199,0.801-2.5,1.199-4,1.4c-2.199,0.399-4.699-0.4-7.699-2c-2.5-1.701-4-2.701-4.199-2.9c-0.602-0.399-1.801-1.399-3.398-2.899
		c-0.602-0.601-1.201-1-2-1.3c-0.4-0.3-0.701-0.3-1-0.3c-0.6-0.2-0.801,0.3-0.801,1.1c0,0.6,0.4,2.6,1.4,6.1
		c1,3.602,1.699,5.9,2.101,6.9c0.899,3.398,1.601,6,2,7.898c0.201,0.801,0.399,1.5,0.601,2c-0.699,0.301-2.897,0.801-6.299,1.5
		c-1.4,0.301-2.4,0.5-3.1,0.602c-0.4,0.199-0.801,0.199-1.301,0.301c-1.1,0.199-2.4,0.398-3.9,0.6c-0.699,0-2.299,0.102-4.5,0.301
		c1-1.801,2.1-5.301,3.201-10.301c1.6-7,2.299-11.899,2.299-14.6c0-0.301,0-0.601-0.1-0.801c0.199-0.101,0.199-0.3,0.199-0.4
		c0.201-0.5,0-0.898-0.5-1.198c-0.299-0.2-0.699-0.2-1.199,0c-0.301,0-0.5,0.198-0.699,0.499C23,35.603,22.801,35.803,22.5,36.103
		c-0.398,0.6-0.5,0.899-0.6,0.899c-1.4,1.801-2.4,2.9-3.1,3.5c-1.5,1.601-2.5,2.801-3.299,3.601c-1.4,1.399-2.801,2.399-4.4,3.2
		c-0.201-0.199-0.301-0.301-0.4-0.301l0.1-0.5c0.1-0.5,0.701-2.199,1.701-5.5c0.199-0.199,0.199-0.301,0.199-0.5
		c0.1-0.699,0.1-1-0.199-1.199c-0.102-0.2-0.301-0.5-0.701-0.602c-1-0.699-1.699-1.199-2.1-1.5C9,36.5,8.5,36.301,8.1,36.5
		c-0.301,0.199-0.5,0.5-0.6,0.801c0,0.3,0.199,0.699,0.5,1.3c0.5,0.7,1,1.2,1.799,1.399c-1.699,1.101-2.5,1.699-2.6,1.699
		c-1.199,0.801-2.4,1.4-3.5,1.602c-0.4,0.199-1.4,0.3-2.699,0.5c-0.5,0-0.9,0.199-1,0.5V45c0,0.301,0.398,0.5,1,0.699
		C2.299,46,4.5,45.301,7.699,43.801c0.1,0,0.199-0.102,0.301-0.2c-0.5,0.7-1.201,1.5-2.301,2.5c-1.301,1.199-1.9,1.898-2,2.1
		c-0.1,0.301-0.199,0.5-0.1,0.602c0.1,0.398,0.4,0.699,0.9,0.801c1,0.199,2.299-0.9,4.299-3.4c-0.1,0.602-0.1,1.102-0.1,1.602
		c0.1,1,0.6,1.699,1.6,1.898c1.1,0.301,4-1.799,8.6-6.199c1.9-1.801,3.301-3.199,4.4-4.399c-0.199,1-0.4,2.7-0.801,5.1
		c-0.5,3.301-1,5.301-1.1,5.9c-0.699,2.699-1.299,4.801-1.699,6.199c-0.201,0.398-0.6,1.5-1.4,3.5c-0.6,1.5-0.9,2.5-0.9,2.699
		c-0.1,0.301,0,0.4,0.102,0.5c-0.102,0.102-0.102,0.199-0.102,0.301v0.5l0.301,0.398c0.1,0.102,1.1,0.301,2.699,0.301
		s3.301-0.199,4.9-0.301l-0.9,3.201c-0.6,2.6-1,4.699-1,6.299c0,1.9,0.1,4,0.301,6.301c0,0.5-0.4,1.699-1.201,3.5
		c-0.699,1.801-1.1,2.801-1.1,3c0,0.801,0.4,1.199,1,1.199c0.701,0,1.5-1,2.301-3.199c0.6-1.898,1-3.398,1-4.5
		c-0.1-1.898-0.1-3.199,0-4.199c0-1.5,0.1-2.801,0.199-4c0.301-2.5,0.4-3.898,0.5-4.102c0.1-0.398,0.4-1.199,0.9-2.398
		c0.199-0.602,0.4-1.199,0.5-1.5h0.5c0.5-0.102,1-0.301,1.4-0.301c1.1-0.301,2.199-0.5,3.1-0.699
		c-0.1,0.602-0.199,1.199-0.301,1.699c0,0.801-0.1,1.301-0.1,1.699v14.4c0,1.801,0.1,2.898,0.1,3.398
		c0.102,0.102,0.801,0.699,2.201,1.5c1.5,1,2.799,1.5,3.799,1.5c0.301,0,0.5-0.199,0.801-0.301c0.199-0.199,0.4-0.398,0.4-0.699
		c0-0.6-0.601-1-1.5-1.398c-1.4-0.602-2.4-1-2.9-1.4c-0.698-0.5-1-1.1-1-1.699c0-0.699,0.1-1.199,0.1-1.5v-6.199
		c0.1-2.801,0.1-4.801,0-6.102c-0.1-1.398,0-2.398,0.202-3.199c0.101-0.199,0.101-0.199,0.101-0.398
		c0.198-0.602,0.299-1.199,0.399-1.801c1.799-0.301,3.198-0.602,4.397-1c0.201-0.102,1-0.301,2.801-0.898l-4.399-13.201
		c-1.101-3.699-1.799-5.898-2-6.699l-0.399-2c0.103,0.101,0.201,0.199,0.301,0.199c1.699,1.602,3,2.602,3.9,3.201
		c0.198,0.1,1.6,1.1,4.1,2.898c2.9,1.5,5.699,2,8.5,1.699c2-0.301,3.699-0.801,5-1.6c0.101-0.102,0.199-0.102,0.302-0.102H57.7
		c0.799,1.398,1.5,2.699,2.299,4.102c1.899,3.398,3.301,5.1,4.103,4.898c0.5,0,0.799-0.398,0.897-1.102c0-0.1-0.5-0.898-1.601-2.398
		c-1.101-1.602-1.899-2.801-2.101-3.5c-0.198-0.199-0.301-0.398-0.301-0.602c0.701,0.301,1.103,0.701,1.5,1.102
		c0.103,0,0.899,0.699,2.5,2.199c1.103,1.199,1.801,1.801,2,1.699c0.701-0.1,1-0.5,0.801-1.299c-0.198-1.5-2.1-3.4-5.801-5.602
		c0.301,0,0.5,0.199,0.603,0.301c0.198,0.199,0.698,0.301,1.397,0.199C64.699,44.699,64.998,44.301,64.998,43.801"/>
	<path fill="#1D1D1B" d="M37.998,20.101c-0.199,0-0.898,0.5-1.699,1.399c-1.301,1-2.9,1.5-4.801,1.601c-2.6,0.2-5.5-0.3-8.5-1.601
		c-1.1-0.5-1.799-0.699-2.1-0.699c-0.4,0-0.6,0.199-0.6,0.9c3,2.699,6.699,3.799,11.199,3.6c2.301-0.2,4.301-0.801,5.801-1.801
		c1.199-0.899,1.802-1.699,1.699-2.399c0-0.101,0-0.3-0.199-0.601C38.699,20.201,38.299,20.101,37.998,20.101"/>
	<path fill="#1D1D1B" d="M34.998,3.9c-1.699-0.4-3.5-0.5-5.5-0.4c-0.898,0-1.5,0.301-1.799,1l0.1,0.801
		c0.5,0.3,1.199,0.5,2.199,0.601c0.801,0,2,0.199,3.602,0.399c1.699,0.3,2.6,0.5,2.898,0.699c0.301,0.101,1.201,0.301,2.801,0.801
		c1,0.199,1.801,0.699,2.5,1.101c0.801,0.6,1.5,1.399,2,2.3c1,1.899,1.5,3.8,1.9,5.7c0.1,0.6,0.1,1.1,0,1.6c-0.4,2-1.1,4-2,5.801
		c-1.4,2.8-3.6,4.699-6.701,5.5c-3.898,1-7.898,1.199-12,0.699c-3-0.399-5.1-1.199-6.398-2.5c-1.301-1.5-2.201-2.5-2.801-3.199
		c-0.6-0.7-1.1-1.5-1.4-2.5c-0.299-1-0.5-1.899-0.398-2.801c0.299-2,0.5-4,1.1-6.1c0.199-1.101,0.9-2.2,1.699-3.101
		c0.6-0.7,1.301-1.301,2.201-2C19.899,7.7,20.7,7.101,21.2,6.7c1.9-1.6,4.299-2.7,7.1-3.399l3.5-1C32.4,2.2,32.8,2,33.2,1.7l0.1-1.2
		C32.999,0.101,32.499,0,31.999,0c-2.699,0.4-5.1,1.101-7.199,2.101c-0.699,0.2-1.699,0.7-3.1,1.5c-1.6,0.801-2.5,1.399-2.9,1.7
		c-1.9,1.6-3.299,2.899-3.9,3.899c-0.5,0.8-0.898,1.601-1.398,2.601c-1,2.3-1.4,4.899-1.4,7.5c0,0.5,0,1.3,0.199,2.399
		c0,1,0.4,2.101,0.9,3.3c0.6,1.301,1.199,2.2,1.9,2.7c0.699,0.5,1.4,1.101,2.1,1.8c1.199,1,2.6,1.9,4.1,2.5c3,1,6,1.4,9,1.101
		c1.4-0.101,2.801-0.3,4.199-0.399c3.301-0.5,6.201-1.8,8.5-3.899c1.301-1.101,2.301-2.5,3.102-4.2
		c0.699-1.699,1.299-3.399,1.699-5.101c0-0.699,0.1-1.399,0-2c0-0.8-0.1-1.699-0.301-2.399c-0.5-1.601-1-3.3-1.699-4.8
		c-0.6-1.5-1.5-2.5-2.5-3.2C41.1,5.7,38.498,4.601,34.998,3.9"/>
	<path fill="#1D1D1B" d="M32.998,9.5c-0.199-0.5-0.898-0.199-1.699,1c0,0.801,0,2.101-0.1,3.801c-0.1,1.4,0.299,2,1.1,1.9
		c0.5-0.102,0.699-0.801,0.9-2.201c0.1-1,0.1-1.899,0.1-2.5C33.199,10.301,33.1,9.701,32.998,9.5"/>
	<path fill="#1D1D1B" d="M28.299,14.801c-0.199-1.301-0.199-1.899-0.199-2c-0.102-2.7-0.602-4-1.301-3.801
		c-0.6,0-0.801,1.301-0.699,3.801c-0.102,2.5,0.398,3.699,1.199,3.699C27.898,16.5,28.199,15.9,28.299,14.801"/>
</g>
</svg>
