<?xml version="1.0" encoding="utf-8"?>
<!-- Generator: Adobe Illustrator 15.0.0, SVG Export Plug-In . SVG Version: 6.00 Build 0)  -->
<!DOCTYPE svg PUBLIC "-//W3C//DTD SVG 1.1//EN" "http://www.w3.org/Graphics/SVG/1.1/DTD/svg11.dtd">
<svg version="1.1" id="Ebene_1" xmlns="http://www.w3.org/2000/svg" xmlns:xlink="http://www.w3.org/1999/xlink" x="0px" y="0px"
	 width="32px" height="32px" viewBox="0 0 32 32" enable-background="new 0 0 32 32" xml:space="preserve">
<g>
	<path fill="#CCCCCC" d="M16,0C7.178,0,0,7.178,0,16s7.178,16,16,16c8.822,0,16-7.178,16-16S24.822,0,16,0L16,0z"/>
	<path fill="#BF9C00" d="M16,1C7.729,1,1,7.729,1,16c0,8.271,6.729,15,15,15c8.271,0,15-6.729,15-15C31,7.729,24.271,1,16,1L16,1z"
		/>
	<path fill="#BF9C00" d="M16,31C7.729,31,1,24.271,1,16C1,7.729,7.729,1,16,1c8.271,0,15,6.729,15,15C31,24.271,24.271,31,16,31z"/>
	<path fill="#FFE677" d="M16,2c7.73,0,14,6.267,14,14c0,7.732-6.27,14-14,14C8.268,30,2,23.732,2,16C2,8.267,8.268,2,16,2"/>
	<path fill="#BF9C00" d="M17.46,5.194c0.349,0,0.692,0,1.036,0c1.589,1.607-3.885,2.156-4.882,2.517
		C9.53,9.182,5.609,12.01,6.066,17.479c0.133,1.594,2.328,4.701,3.85,5.478c3.195,1.633,10.068,2.058,13.021-0.59
		c2.449-2.198,3.66-7.042,1.479-10.363c-0.763-1.16-2.983-2.105-4.883-2.664c-1.451-0.427-3.357-0.071-4.44-1.333
		c1.528-1.636,4.306-0.35,6.067,0.296c3.547,1.298,5.668,3.245,5.923,7.845c0,0.395,0,0.792,0,1.184
		c-0.729,1.875-0.968,3.466-2.076,4.883c-2.98,3.818-11.358,4.583-15.982,1.777c-2.04-1.236-3.438-3.132-4.146-5.476
		c0-0.984,0-1.975,0-2.961C5.821,8.848,10.99,6.369,17.46,5.194z"/>
	<path fill="#BF9C00" d="M14.207,15.849c0.979-0.664,0.746-3.832,0.149-4.733c-0.149,0-0.296,0-0.446,0
		C13.587,12.198,12.813,15.323,14.207,15.849z"/>
	<path fill="#BF9C00" d="M16.721,12.15c0.276,1.285-0.734,3.072,0.297,3.699c1.281-0.357,1.102-2.928,0.89-4.288
		C17.279,11.524,17.154,11.99,16.721,12.15z"/>
	<path fill="#BF9C00" d="M18.496,19.697c-3.454,1.242-7.002-1.469-9.027-1.33c0.775,1.269,2.924,2.709,5.18,2.959
		c2.926,0.324,6.337-0.141,6.369-2.663C19.6,18.455,19.479,19.346,18.496,19.697z"/>
</g>
</svg>
