<?xml version="1.0" encoding="utf-8"?>
<!-- Generator: Adobe Illustrator 15.0.0, SVG Export Plug-In . SVG Version: 6.00 Build 0)  -->
<!DOCTYPE svg PUBLIC "-//W3C//DTD SVG 1.1//EN" "http://www.w3.org/Graphics/SVG/1.1/DTD/svg11.dtd">
<svg version="1.1" id="Ebene_1" xmlns="http://www.w3.org/2000/svg" xmlns:xlink="http://www.w3.org/1999/xlink" x="0px" y="0px"
	 width="69px" height="70px" viewBox="0 0 69 70" enable-background="new 0 0 69 70" xml:space="preserve">
<path fill="#AAD6FF" d="M47.452,69.333L47.452,69.333c-1.789-0.001-3.759-1.46-11.4-7.704c-2.354-1.924-4.778-3.902-6.801-5.43
	c-2.578,0.779-5.444,1.721-8.229,2.636c-6.806,2.235-10.438,3.403-12.195,3.403c-1.816,0-2.73-1.17-2.963-2.172
	c-0.355-1.531,0.373-3.685,2.531-9.678c1.383-3.848,3.092-8.592,3.778-11.896c-0.646-1.328-3.291-4.831-5.088-7.207
	c-4.688-6.205-6.762-9.14-6.928-11.215c-0.06-0.732,0.233-1.546,0.737-2.08c0.892-0.947,2.125-1.107,4.551-1.107
	c2.025,0,4.841,0.139,7.82,0.287c3.129,0.154,6.361,0.314,8.76,0.314c0.55,0,1.031-0.01,1.445-0.025
	c1.154-1.34,3.363-4.516,5.047-6.932C34.409,2.061,35.747,0.4,37.846,0.4c0.202,0,0.463,0.03,0.661,0.078
	c2.867,0.687,4.048,4.462,6.675,13.697c0.728,2.557,1.476,5.188,2.271,7.646c3.627,1.336,7.029,2.25,10.066,3.065
	c5.451,1.465,9.057,2.432,10.646,4.949c0.154,0.247,0.271,0.518,0.336,0.802c0.457,1.968-0.535,3.678-7.621,8.613
	c-3.322,2.314-7.258,4.771-10.283,6.436c0.031,1.981,0.092,3.871,0.148,5.709c0.188,5.922,0.348,11.033-0.521,15.7
	c-0.043,0.23-0.115,0.453-0.219,0.663C49.534,68.729,48.557,69.333,47.452,69.333z"/>
<path fill="#FFFFFF" d="M47.202,68.732L47.202,68.732c-1.757,0-3.718-1.455-11.339-7.682c-2.37-1.938-4.812-3.932-6.844-5.463
	c-2.592,0.781-5.479,1.729-8.281,2.65c-6.795,2.23-10.422,3.396-12.163,3.396c-1.759,0-2.644-1.129-2.865-2.095
	c-0.351-1.504,0.377-3.647,2.526-9.622c1.39-3.861,3.105-8.628,3.789-11.943c-0.623-1.312-3.299-4.854-5.11-7.252
	c-4.679-6.188-6.744-9.115-6.908-11.162c-0.055-0.704,0.228-1.49,0.711-2.004c0.867-0.92,2.082-1.076,4.479-1.076
	c2.021,0,4.836,0.14,7.816,0.287c3.129,0.154,6.362,0.314,8.764,0.314c0.568,0,1.065-0.01,1.492-0.027
	c1.155-1.332,3.387-4.537,5.082-6.973C34.218,1.652,35.546,0,37.596,0c0.194,0,0.446,0.029,0.639,0.076
	c2.812,0.674,3.986,4.432,6.603,13.627c0.729,2.572,1.483,5.223,2.287,7.695c3.646,1.347,7.069,2.266,10.123,3.086
	c5.43,1.457,9.017,2.42,10.586,4.905c0.149,0.237,0.26,0.497,0.321,0.771c0.438,1.883-0.586,3.637-7.581,8.509
	c-3.341,2.327-7.298,4.796-10.328,6.458c0.032,2.006,0.094,3.914,0.151,5.771c0.187,5.914,0.349,11.021-0.519,15.68
	c-0.041,0.221-0.11,0.436-0.211,0.637C49.212,68.15,48.268,68.732,47.202,68.732z"/>
<path fill="#BF9C00" d="M45.124,23.314c-2.967-8.745-5.248-20.274-7.476-20.808c-1.502-0.36-10.709,14.851-13.274,16.979
	c-5.067,0.517-21.94-1.243-21.875-0.122C2.741,22.406,15.132,36.12,14.566,38.01c-1.271,6.838-6.836,19.188-6.422,20.969
	c0.252,1.086,12.856-3.668,21.36-6.143c6.227,4.51,17.291,14.562,17.914,13.283c1.141-6.135,0.383-13.354,0.305-22.485
	c6.084-3.116,18.369-11.295,17.994-12.91C63.919,27.88,55.157,27.216,45.124,23.314z"/>
<path fill="#FFE677" d="M29.773,50.902l0.197,0.143c2.041,1.479,4.844,3.844,7.553,6.13c3.095,2.611,7.256,6.125,8.478,6.603
	c0.49-2.406,0.319-5.814,0.144-9.416c-0.177-3.561-0.377-7.596,0.021-11.383l0.025-0.269l0.242-0.124
	c4.754-2.436,15.094-9.682,16.752-11.336c-1.541-1.104-7.996-3.244-19.217-6.365l-0.256-0.072l-0.084-0.25
	c-0.949-2.798-1.887-6.072-2.791-9.238c-1.293-4.518-2.625-9.177-3.533-10.58c-1.131,1.253-4.807,6.681-7.311,10.379
	c-1.883,2.779-3.508,5.949-4.242,6.912L25.604,23h-0.357c-2.141,0-5.859-0.968-9.457-1.16c-3.615-0.192-7.352-0.776-9.5-0.776
	c-0.723,0-1.135-0.169-1.367-0.146c0.402,0.833,2.285,3.21,3.967,5.419c3.223,4.232,6.875,8.983,7.437,11.5l0.021,0.075L16.327,38
	c-0.675,3.632-2.664,8.973-4.263,13.268c-0.86,2.314-1.625,4.36-2.014,5.687c3.588-0.416,7.568-1.854,11.768-3.376
	c2.5-0.904,5.086-1.839,7.722-2.604L29.773,50.902z"/>
</svg>
