<?xml version="1.0" encoding="utf-8"?>
<!-- Generator: Adobe Illustrator 15.0.0, SVG Export Plug-In . SVG Version: 6.00 Build 0)  -->
<!DOCTYPE svg PUBLIC "-//W3C//DTD SVG 1.1//EN" "http://www.w3.org/Graphics/SVG/1.1/DTD/svg11.dtd">
<svg version="1.1" id="Ebene_1" xmlns="http://www.w3.org/2000/svg" xmlns:xlink="http://www.w3.org/1999/xlink" x="0px" y="0px"
	 width="69px" height="70px" viewBox="0 0 69 70" enable-background="new 0 0 69 70" xml:space="preserve">
<g>
	<path fill="#AAD6FF" d="M37.594,0c-2.049,0-3.377,1.653-9.244,10.083c-1.695,2.437-3.926,5.642-5.082,6.974
		c-0.425,0.018-0.924,0.027-1.491,0.027c-2.401,0-5.636-0.16-8.765-0.314c-2.98-0.148-5.795-0.287-7.816-0.287
		c-2.396,0-3.611,0.155-4.479,1.075c-0.484,0.515-0.766,1.3-0.71,2.005c0.163,2.047,2.229,4.973,6.908,11.162
		c1.812,2.398,4.487,5.938,5.111,7.253c-0.685,3.314-2.399,8.082-3.79,11.943c-2.15,5.975-2.876,8.117-2.527,9.621
		c0.224,0.967,1.108,2.096,2.865,2.096c1.742,0,5.37-1.166,12.165-3.398c2.804-0.922,5.688-1.869,8.28-2.65
		c2.032,1.531,4.473,3.525,6.844,5.463c7.621,6.227,9.582,7.682,11.338,7.682c1.064,0,2.01-0.582,2.467-1.519
		c0.098-0.202,0.168-0.416,0.209-0.637c0.866-4.658,0.704-9.767,0.518-15.681c-0.059-1.856-0.119-3.767-0.151-5.771
		c3.03-1.663,6.987-4.131,10.329-6.459c6.994-4.871,8.019-6.625,7.58-8.508c-0.062-0.273-0.172-0.533-0.32-0.771
		c-1.57-2.484-5.157-3.447-10.587-4.905c-3.054-0.819-6.476-1.739-10.122-3.085c-0.805-2.474-1.557-5.123-2.288-7.695
		C42.221,4.51,41.046,0.751,38.232,0.077C38.041,0.029,37.79,0,37.594,0L37.594,0z"/>
	<path fill="#FFFFFF" d="M37.594,0.5c0.158,0,0.369,0.025,0.521,0.062c2.539,0.609,3.68,4.282,6.236,13.278
		c0.729,2.562,1.483,5.214,2.295,7.713c0.047,0.146,0.158,0.262,0.303,0.314c3.664,1.354,7.113,2.279,10.164,3.1
		c5.316,1.427,8.828,2.369,10.295,4.689c0.119,0.191,0.207,0.398,0.258,0.616c0.377,1.625-0.661,3.306-7.381,7.985
		c-3.286,2.289-7.227,4.754-10.283,6.431c-0.163,0.09-0.264,0.262-0.26,0.446c0.033,1.986,0.094,3.884,0.15,5.718l0.002,0.08
		c0.187,5.879,0.347,10.954-0.511,15.555c-0.032,0.178-0.089,0.349-0.168,0.51c-0.37,0.762-1.144,1.236-2.016,1.236
		c-1.583,0-3.632-1.531-11.021-7.568l-0.045-0.035c-2.354-1.924-4.789-3.912-6.815-5.439c-0.088-0.065-0.193-0.101-0.302-0.101
		c-0.048,0-0.096,0.007-0.143,0.021c-2.597,0.783-5.489,1.733-8.293,2.654c-6.746,2.219-10.343,3.375-12.01,3.375
		c-1.464,0-2.196-0.92-2.378-1.707c-0.319-1.384,0.487-3.72,2.516-9.354c1.386-3.855,3.113-8.652,3.804-12
		c0.022-0.105,0.009-0.217-0.038-0.314c-0.644-1.356-3.247-4.803-5.164-7.34C2.8,24.451,0.657,21.43,0.505,19.522
		c-0.044-0.558,0.188-1.21,0.576-1.622c0.74-0.785,1.866-0.918,4.114-0.918c2.014,0,4.818,0.139,7.791,0.286l0.053,0.003
		c3.115,0.153,6.338,0.312,8.737,0.312c0.575,0,1.082-0.01,1.513-0.028c0.137-0.006,0.266-0.067,0.356-0.172
		c1.173-1.353,3.358-4.491,5.114-7.014C34.415,2.244,35.798,0.5,37.594,0.5"/>
</g>
</svg>
