<svg version="1" xmlns="http://www.w3.org/2000/svg" width="48" height="36">
  <path d="M36.855 20.745c.15.211.222.431.3.65.057.221.1.444.111.67.029.452.019.908-.119 1.378a.571.571 0 0 1-1.05.113c-.234-.429-.342-.873-.411-1.32a3.34 3.34 0 0 1-.035-.679c.029-.23.052-.46.154-.699a.605.605 0 0 1 1.05-.113zm2.749-.581a.587.587 0 0 0-.77.31 3.215 3.215 0 0 0-.198.758 4.715 4.715 0 0 0-.057.757c.012.505.062 1.009.267 1.513a.581.581 0 0 0 1.078-.004c.201-.506.247-1.011.255-1.515a4.715 4.715 0 0 0-.063-.757 3.17 3.17 0 0 0-.204-.756.58.58 0 0 0-.308-.306zm-5.625 5.865a.57.57 0 0 0-.894.505c.009.135.028.255.067.381.061.137.132.282.214.404.164.234.368.435.575.623.423.372.911.645 1.414.84 1.011.392 2.067.492 3.104.463 1.037-.05 2.095-.277 3.045-.82a4.652 4.652 0 0 0 1.264-1.054c.362-.416.668-.919.666-1.497a.528.528 0 0 0-.887-.384l-.036.034c-.349.324-.528.668-.779.997a4.688 4.688 0 0 1-.898.851 4.62 4.62 0 0 1-2.428.859c-.887.069-1.788-.163-2.534-.575a4.87 4.87 0 0 1-.999-.736c-.15-.135-.271-.294-.404-.44a1.61 1.61 0 0 0-.196-.191c-.083-.082-.175-.176-.284-.251l-.01-.009zm13.67-1.607c.026 1.245-.184 2.586-.723 3.742a8.552 8.552 0 0 1-2.303 3.021c-1.958 1.619-4.471 2.43-6.97 2.417-2.495-.017-5.058-.966-6.845-2.824-.031-.032-.058-.069-.088-.101C27.462 33.948 22.98 36 18 36 8.062 36 0 27.94 0 18 0 8.062 8.062 0 18 0c8.911 0 16.283 6.495 17.716 15 .402-.15.808-.288 1.221-.398.595-.136 1.234-.38 1.862-.151l.009.003a.624.624 0 0 1 .145 1.095c-.091.064-.181.103-.271.147.165-.001.33.003.494.01.631.024 1.267.099 1.895.236 1.255.269 2.489.812 3.511 1.644 2.071 1.692 3.025 4.333 3.067 6.836zm-18.141 4.63c-.933-1.585-1.404-3.454-1.193-5.319.272-2.589 1.698-4.935 3.632-6.548a12.313 12.313 0 0 1 1.881-1.302C32.786 8.062 26.102 2 18 2 9.178 2 2 9.178 2 18s7.178 16 16 16c4.527 0 8.596-1.915 11.508-4.948zm16.775-4.592c-.077-2.194-.999-4.378-2.666-5.673-.824-.655-1.817-1.086-2.875-1.303a9.21 9.21 0 0 0-1.624-.184c-.554-.016-1.099.031-1.687-.16l-.019-.006a.625.625 0 0 1-.401-.788.628.628 0 0 1 .11-.196 11.067 11.067 0 0 0-4.171 2.216c-1.667 1.423-2.916 3.385-3.166 5.531-.276 2.126.522 4.357 1.994 5.959 1.469 1.615 3.671 2.499 5.895 2.538 2.221.065 4.504-.671 6.154-2.137a7.288 7.288 0 0 0 1.913-2.615c.442-1.007.579-2.067.543-3.182z"/>
</svg>
