<svg version="1" xmlns="http://www.w3.org/2000/svg" width="48" height="36">
  <path d="M44.582 17.587c-1.022-.833-2.256-1.375-3.511-1.644a10.731 10.731 0 0 0-1.895-.236 10.15 10.15 0 0 0-.494-.01c.09-.044.18-.083.271-.147a.624.624 0 0 0-.145-1.095l-.009-.003c-.627-.229-1.267.015-1.862.151-.414.11-.819.248-1.221.398C34.283 6.495 26.911 0 18 0 8.062 0 0 8.062 0 18c0 9.94 8.062 18 18 18 4.98 0 9.462-2.052 12.72-5.324.031.032.057.069.088.101 1.788 1.858 4.35 2.807 6.845 2.824 2.5.013 5.012-.798 6.97-2.417a8.535 8.535 0 0 0 2.303-3.021c.539-1.155.749-2.497.723-3.741-.042-2.503-.996-5.144-3.067-6.835zM18 34C9.178 34 2 26.822 2 18S9.178 2 18 2c8.102 0 14.786 6.062 15.828 13.883-.663.377-1.296.807-1.881 1.302-1.934 1.614-3.36 3.959-3.632 6.548-.211 1.865.26 3.734 1.193 5.319C26.596 32.085 22.527 34 18 34zm27.742-6.358a7.288 7.288 0 0 1-1.913 2.615c-1.65 1.466-3.933 2.203-6.154 2.137-2.224-.039-4.426-.923-5.895-2.538-1.472-1.602-2.271-3.833-1.994-5.959.25-2.146 1.5-4.108 3.166-5.531a11.095 11.095 0 0 1 4.171-2.216.628.628 0 0 0-.11.196.626.626 0 0 0 .401.788l.019.006c.588.191 1.133.145 1.687.16a9.21 9.21 0 0 1 1.624.184c1.058.216 2.051.647 2.875 1.303 1.667 1.294 2.589 3.479 2.666 5.673.034 1.115-.103 2.175-.543 3.182zm-8.887-6.897c.15.211.222.431.3.65.057.221.1.444.111.67.029.452.019.908-.119 1.378a.571.571 0 0 1-1.05.113c-.234-.429-.342-.873-.411-1.32a3.34 3.34 0 0 1-.035-.679c.029-.23.052-.46.154-.699a.605.605 0 0 1 1.05-.113zm3.058-.275c.109.252.161.504.204.756.048.252.056.504.063.757-.008.504-.054 1.009-.255 1.515a.581.581 0 0 1-1.078.004c-.205-.504-.254-1.008-.267-1.513.005-.252.011-.504.057-.757a3.18 3.18 0 0 1 .198-.758.587.587 0 0 1 1.078-.004zm2.666 8.039c-.114-.067-.213-.155-.301-.23-.081-.055-.141-.112-.21-.177-.144-.136-.274-.286-.434-.411a4.954 4.954 0 0 0-1.047-.667c-.771-.361-1.685-.533-2.564-.405a4.607 4.607 0 0 0-2.362 1.018c-.318.274-.607.57-.835.909-.227.345-.381.7-.706 1.048l-.034.036a.528.528 0 0 1-.912-.321c-.044-.575.227-1.099.558-1.539.33-.448.73-.842 1.188-1.139.911-.606 1.952-.903 2.982-1.021 1.033-.097 2.092-.066 3.125.256a4.729 4.729 0 0 1 1.465.74c.22.173.437.359.616.58.09.116.172.254.242.387.048.123.076.241.094.375a.572.572 0 0 1-.856.569l-.009-.008z"/>
</svg>
