<svg version="1" xmlns="http://www.w3.org/2000/svg" width="20" height="20">
  <path d="M18.517 15.222c.03-.05.068-.094.098-.144l-.006-.006a9.94 9.94 0 0 0-.001-10.144l.006-.006c-.03-.05-.067-.094-.098-.144a10.413 10.413 0 0 0-.518-.762c-.053-.07-.104-.142-.158-.211a10.012 10.012 0 0 0-1.646-1.646c-.069-.054-.141-.105-.211-.158-.246-.184-.5-.356-.762-.518-.05-.03-.094-.068-.144-.098l-.006.006a9.942 9.942 0 0 0-10.143.001l-.006-.006c-.05.03-.094.067-.144.098-.262.161-.516.333-.762.517-.07.053-.142.104-.211.158a10.09 10.09 0 0 0-1.646 1.646c-.054.069-.105.141-.158.211-.184.246-.356.5-.518.762-.03.05-.068.094-.098.144l.006.006a9.94 9.94 0 0 0 .001 10.144l-.006.006c.03.05.067.094.098.144.162.262.334.516.518.762.053.07.104.142.158.211a10.012 10.012 0 0 0 1.646 1.646c.069.054.141.105.211.158.246.184.5.356.762.518.05.03.094.068.144.098l.006-.006a9.942 9.942 0 0 0 10.143-.001l.006.006c.05-.03.094-.067.144-.098.262-.162.516-.334.762-.518.07-.053.142-.104.211-.158a10.012 10.012 0 0 0 1.646-1.646c.054-.069.105-.141.158-.211.184-.245.356-.499.518-.761zM19 10a8.94 8.94 0 0 1-1.122 4.342l-2.712-2.712a5.421 5.421 0 0 0 0-3.26l2.712-2.712A8.94 8.94 0 0 1 19 10zM5.583 10c0-2.435 1.981-4.417 4.417-4.417S14.417 7.565 14.417 10 12.435 14.417 10 14.417 5.583 12.435 5.583 10zM10 1a8.94 8.94 0 0 1 4.342 1.122L11.63 4.834a5.421 5.421 0 0 0-3.26 0L5.658 2.122A8.94 8.94 0 0 1 10 1zm-9 9a8.94 8.94 0 0 1 1.122-4.342L4.834 8.37a5.417 5.417 0 0 0-.001 3.26l-2.712 2.712A8.95 8.95 0 0 1 1 10zm9 9a8.94 8.94 0 0 1-4.342-1.122l2.712-2.712a5.421 5.421 0 0 0 3.26 0l2.712 2.712A8.94 8.94 0 0 1 10 19z"/>
</svg>
