<svg version="1" xmlns="http://www.w3.org/2000/svg" width="24" height="24">
  <path d="M22.256 18.265c.036-.059.081-.111.116-.171l-.008-.008a11.922 11.922 0 0 0 0-12.172l.008-.008c-.035-.06-.08-.112-.116-.171-.193-.315-.4-.62-.622-.915-.064-.085-.125-.172-.191-.256a12.14 12.14 0 0 0-1.972-1.972c-.084-.066-.171-.127-.256-.191a12.16 12.16 0 0 0-.915-.622c-.059-.036-.111-.081-.171-.116l-.008.008a11.922 11.922 0 0 0-12.172 0l-.008-.008c-.06.035-.112.08-.171.116-.314.194-.62.401-.915.622-.085.064-.171.125-.255.191a12.074 12.074 0 0 0-1.973 1.973c-.066.083-.127.17-.19.255-.221.295-.429.6-.622.915-.037.059-.082.112-.117.171l.008.008a11.922 11.922 0 0 0 0 12.172l-.008.008c.035.06.08.112.116.171.194.315.401.62.623.916.063.084.124.171.19.254.58.732 1.241 1.394 1.974 1.974.083.066.169.126.254.19.296.222.601.429.916.623.059.036.111.081.171.116l.008-.008a11.925 11.925 0 0 0 12.171-.001l.008.008c.06-.035.112-.08.171-.116.315-.193.62-.401.915-.622.085-.063.172-.125.255-.19a12.074 12.074 0 0 0 1.973-1.973c.066-.083.127-.17.191-.255.221-.296.428-.601.622-.916zM23.035 12c0 1.944-.512 3.77-1.401 5.356l-3.4-3.399a6.487 6.487 0 0 0 0-3.914l3.4-3.399A10.922 10.922 0 0 1 23.035 12zm-16.5 0c0-3.033 2.467-5.5 5.5-5.5s5.5 2.467 5.5 5.5-2.467 5.5-5.5 5.5-5.5-2.467-5.5-5.5zm5.5-11c1.944 0 3.77.512 5.356 1.401l-3.399 3.4a6.492 6.492 0 0 0-3.914 0l-3.399-3.4A10.925 10.925 0 0 1 12.035 1zm-11 11c0-1.944.512-3.77 1.401-5.356l3.4 3.399a6.492 6.492 0 0 0 0 3.914l-3.4 3.399A10.922 10.922 0 0 1 1.035 12zm11 11c-1.944 0-3.77-.512-5.356-1.401l3.399-3.4a6.487 6.487 0 0 0 3.914 0l3.399 3.4A10.922 10.922 0 0 1 12.035 23z"/>
</svg>
